<?xml version="1.0" encoding="utf-8"?>
<!-- Generator: Adobe Illustrator 19.2.0, SVG Export Plug-In . SVG Version: 6.00 Build 0)  -->
<svg version="1.1" id="Warstwa_1" xmlns="http://www.w3.org/2000/svg" xmlns:xlink="http://www.w3.org/1999/xlink" x="0px" y="0px"
	 viewBox="0 0 85.2 59.3" style="enable-background:new 0 0 85.2 59.3;" xml:space="preserve">
<style type="text/css">
	.st0{fill:#606060;}
</style>
<g>
	<path class="st0" d="M73,3.9c0.3-0.3,0.4-0.6,0.5-1c-0.1-0.4-0.2-0.7-0.5-1c-0.3-0.3-0.6-0.5-1-0.5c-0.5,0-0.8,0.2-1.1,0.5
		c-0.3,0.3-0.5,0.6-0.4,1c-0.1,0.4,0.1,0.7,0.4,1c0.3,0.3,0.6,0.4,1.1,0.4C72.4,4.3,72.7,4.2,73,3.9L73,3.9z"/>
	<path class="st0" d="M79.8,4.9c-0.2-0.2-0.5-0.3-0.8-0.3c-0.3,0-0.6,0.1-0.9,0.3c-0.2,0.2-0.3,0.5-0.3,0.9c0,0.3,0.1,0.6,0.3,0.9
		c0.2,0.2,0.5,0.3,0.9,0.3c0.3,0,0.6-0.1,0.8-0.3C80,6.3,80.1,6,80.1,5.7C80.1,5.4,80,5.1,79.8,4.9L79.8,4.9z"/>
	<path class="st0" d="M47,43.3c-0.7-0.7-1.5-1-2.5-1c-0.9,0-1.7,0.3-2.4,1c-0.7,0.7-1,1.5-1,2.4c0,1,0.3,1.8,1,2.5
		c0.7,0.7,1.5,1,2.4,1c1,0,1.8-0.3,2.5-1c0.7-0.7,1-1.5,1-2.5C47.9,44.8,47.7,44,47,43.3L47,43.3z"/>
	<path class="st0" d="M36.9,51.1c-0.8,0-1.4,0.3-2,0.9c-0.6,0.5-0.9,1.1-0.8,1.8c-0.1,0.7,0.2,1.4,0.8,2c0.5,0.5,1.2,0.8,2,0.8
		c0.7,0,1.4-0.3,2-0.8c0.5-0.5,0.7-1.2,0.7-2c0-0.7-0.2-1.3-0.7-1.8C38.3,51.4,37.6,51.1,36.9,51.1L36.9,51.1z"/>
	<path class="st0" d="M9.3,52.8C9,53,8.9,53.3,8.9,53.7c0,0.3,0.2,0.6,0.4,0.8c0.2,0.2,0.5,0.3,0.8,0.3c0.3,0,0.6-0.1,0.9-0.3
		c0.2-0.2,0.3-0.5,0.3-0.8c0-0.3-0.1-0.6-0.3-0.9c-0.2-0.2-0.6-0.3-0.9-0.3C9.7,52.5,9.5,52.6,9.3,52.8L9.3,52.8z"/>
	<path class="st0" d="M18.2,55.4c-0.3-0.3-0.7-0.5-1.2-0.5c-0.4,0-0.8,0.1-1.1,0.5c-0.3,0.3-0.5,0.7-0.5,1.1c0,0.5,0.2,0.8,0.5,1.2
		c0.3,0.3,0.7,0.4,1.1,0.4c0.5,0,0.9-0.1,1.2-0.4c0.3-0.3,0.5-0.7,0.4-1.2C18.6,56.1,18.4,55.7,18.2,55.4L18.2,55.4z"/>
	<path class="st0" d="M25.4,58.8c0.3,0.3,0.8,0.5,1.3,0.6c0.5-0.1,0.9-0.2,1.3-0.6c0.4-0.3,0.5-0.8,0.5-1.3c0-0.5-0.1-1-0.5-1.3
		c-0.3-0.3-0.8-0.5-1.3-0.5c-0.5,0-1,0.2-1.3,0.5c-0.3,0.3-0.5,0.8-0.5,1.3C24.8,57.9,25,58.4,25.4,58.8L25.4,58.8z"/>
	<path class="st0" d="M63.6,0.6c-0.3-0.3-0.7-0.5-1.3-0.5c-0.5,0-1,0.2-1.3,0.5c-0.3,0.3-0.5,0.8-0.5,1.3c0,0.5,0.2,1,0.5,1.3
		c0.3,0.3,0.8,0.5,1.3,0.5c0.5,0,0.9-0.2,1.3-0.5c0.3-0.3,0.6-0.8,0.6-1.3C64.2,1.4,64,1,63.6,0.6L63.6,0.6z"/>
	<path class="st0" d="M54.1,3.6c-0.6-0.6-1.2-0.8-2-0.8c-0.7,0-1.4,0.2-2,0.8c-0.5,0.5-0.8,1.2-0.8,2s0.3,1.4,0.8,1.9
		c0.6,0.5,1.2,0.8,2,0.8c0.7,0,1.4-0.3,2-0.8c0.5-0.5,0.8-1.2,0.8-1.9S54.6,4.1,54.1,3.6L54.1,3.6z"/>
	<path class="st0" d="M47,11.2c-0.7-0.7-1.5-1-2.5-1c-0.9,0-1.7,0.3-2.5,1c-0.6,0.7-1,1.5-1,2.5c0,0.9,0.3,1.7,1,2.4
		c0.7,0.7,1.6,1,2.5,1c1,0,1.8-0.3,2.4-1c0.7-0.7,1.1-1.5,1.1-2.4C48,12.6,47.7,11.8,47,11.2L47,11.2z"/>
	<path class="st0" d="M55.6,14.4c-1.4,0.6-2.7,1.3-4,1.8v17.3c-0.1,3.4,2.5,5.1,7.8,5.1V36c-1.2,0-2-0.2-2.7-0.7
		c-0.7-0.6-1.1-1.3-1.1-2.2L55.6,14.4L55.6,14.4z"/>
	<path class="st0" d="M70.7,21.1c-2.8,0-5.2,0.7-7.3,2.2c-2.3,1.7-3.5,4-3.5,6.7c0,2.7,1.2,4.8,3.3,6.5c2,1.4,4.4,2.2,7.3,2.2
		c2,0,3.7-0.2,5.4-0.6c1.3-0.3,2.2-0.7,4.5-2L78.8,34c-3.2,1.7-5.1,2.2-7.5,2.2c-2,0-3.7-0.5-4.9-1.4c-1.5-1-2.2-2.5-2.2-4.6h16.4
		c0.2-0.6,0.3-1.2,0.3-1.8c0-2.2-0.9-3.9-2.7-5.2C76.4,21.8,73.9,21.1,70.7,21.1L70.7,21.1z M66.3,24.9c1.2-0.9,2.7-1.3,4.6-1.3
		c1.9,0,3.5,0.5,4.6,1.3c1,0.8,1.6,1.8,1.6,3.1H64.3C64.5,26.8,65.1,25.8,66.3,24.9L66.3,24.9z"/>
	<path class="st0" d="M1.2,22.8l1.7,2.5c1.3-1,3.3-1.6,5.8-1.6c3.3,0,4.9,1.4,4.9,4.1c-1.1-0.3-2-0.4-2.9-0.4
		c-3.1,0-5.7,0.6-7.7,1.8C1,30.5,0,32,0,33.7c0,1.4,0.6,2.6,2,3.6c1.3,1,2.8,1.4,4.6,1.4c3.3,0,5.8-0.8,7.4-2.3
		c0.4,0.8,0.9,1.4,1.8,1.7c0.8,0.4,2,0.6,3.7,0.6v-1.6c-1.2-0.5-1.8-1.5-1.8-2.9v-6.1c0-2.5-0.7-4.3-2.2-5.4
		c-1.5-1.1-3.9-1.6-7.2-1.6c-1.3,0-2.5,0.2-3.9,0.5C3,21.9,2,22.3,1.2,22.8L1.2,22.8z M10.9,29.8c0.5,0,1.4,0.1,2.7,0.3v4.1
		c-1.6,1.4-3.3,2.1-5.4,2.1c-2.8,0-4.2-0.9-4.2-2.6c0-1.1,0.6-2,1.9-2.8C7.2,30.2,8.9,29.8,10.9,29.8L10.9,29.8z"/>
	<path class="st0" d="M22.8,22.8c-1.6,1.2-2.5,2.7-2.4,4.4c0,2.8,1.6,4.8,4.8,5.9c-1.2,0.2-2.1,0.5-2.8,1c-0.7,0.5-1.2,1-1.2,1.6
		c0,1.8,1.6,2.8,4.8,2.8c0.7-0.1,1.6-0.1,2.8-0.3c1.2-0.2,2-0.2,2.4-0.2c2.7,0,4,0.6,4,2c-0.1,0.7-0.6,1.3-1.6,1.8
		c-1,0.5-2.5,0.7-4.3,0.7c-2,0-4.2-0.6-6.6-1.8l-2.2,2.4c1,0.6,2.3,1,4,1.4c1.6,0.4,3.2,0.6,4.6,0.6c2.9,0,5.3-0.5,7.1-1.4
		c1.9-1,2.8-2.2,2.8-3.8c0-1.4-0.6-2.5-1.8-3.3c-1.3-0.7-3.1-1.2-5.2-1.2c-0.6,0-1.6,0.1-2.9,0.2c-1.3,0.2-2.2,0.2-2.8,0.2
		c-1.4,0-2.1-0.2-2.1-0.6c0-0.3,0.3-0.6,1-0.7c0.6-0.2,1.2-0.3,1.6-0.3l3.3-0.3c2.3-0.2,4.2-0.8,5.6-2c1.4-1.2,2.1-2.6,2.1-4.3
		c0-1.6-0.5-2.9-1.5-3.9l2.4-1.4l-2.6-1.8l-2,1.8c-1.3-0.6-3.1-1-5.3-1C26.6,21.1,24.5,21.7,22.8,22.8L22.8,22.8z M25.8,24.6
		c0.9-0.7,2.1-1.2,3.5-1.1c1.3-0.1,2.4,0.3,3.3,1.1c0.9,0.7,1.3,1.7,1.3,2.7c0,1.2-0.4,2.2-1.3,3c-0.8,0.7-1.9,1.1-3.3,1.1
		c-1.4,0-2.6-0.3-3.5-1.2c-0.9-0.7-1.3-1.8-1.3-2.9C24.5,26.3,25,25.4,25.8,24.6L25.8,24.6z"/>
	<polygon class="st0" points="47.4,21.4 40.2,21.4 40.2,23.9 43.3,23.9 43.3,38.5 47.4,38.5 	"/>
	<polygon class="st0" points="82.5,28.5 82.5,30.2 82.6,30.2 82.6,28.5 83,28.5 83,28.4 82.1,28.4 82.1,28.5 	"/>
	<polygon class="st0" points="83.4,30.2 83.3,30.2 83.3,28.4 83.6,28.4 84,29.9 84.4,28.4 84.7,28.4 84.7,30.2 84.5,30.2 84.5,28.5 
		84.1,30.2 83.9,30.2 83.4,28.5 	"/>
</g>
</svg>
