<?xml version="1.0" encoding="utf-8"?>
<!-- Generator: Adobe Illustrator 19.2.0, SVG Export Plug-In . SVG Version: 6.00 Build 0)  -->
<svg version="1.1" id="Warstwa_1" xmlns="http://www.w3.org/2000/svg" xmlns:xlink="http://www.w3.org/1999/xlink" x="0px" y="0px"
	 viewBox="0 0 61.8 59.4" style="enable-background:new 0 0 61.8 59.4;" xml:space="preserve">
<style type="text/css">
	.st0{fill:#606060;}
</style>
<g>
	<g>
		<polygon class="st0" points="22.4,16 26,23.1 19.1,23.2 		"/>
		<path class="st0" d="M22.6,0.2L22,0l0,0l-0.6,0.2L0,9l4.1,28.9l19,9.4l0.1,0l0.1,0l18.6-10.3l2.6-29.1L22.6,0.2z M31.9,34.5
			l-3.6-6.9L17,27.9L13.8,35l-5.1,0.1L22.1,5.5L37,34.4L31.9,34.5z"/>
	</g>
	<g>
		<path class="st0" d="M39.1,59.2v-1.8c4.5-3.3,5.8-4.5,5.8-5.8c0-1-0.9-1.4-1.8-1.4c-1.3,0-2.2,0.5-3,1.3l-1.3-1.6
			c1.1-1.2,2.7-1.8,4.2-1.8c2.3,0,4.2,1.3,4.2,3.5c0,1.9-1.6,3.5-4.4,5.6h4.5v2.1H39.1z"/>
		<path class="st0" d="M49,58.1c0-0.7,0.6-1.3,1.3-1.3c0.7,0,1.3,0.6,1.3,1.3c0,0.7-0.6,1.3-1.3,1.3C49.6,59.4,49,58.8,49,58.1z"/>
		<path class="st0" d="M52.7,53.7c0-2.8,1.4-5.7,4.6-5.7c3.1,0,4.6,2.8,4.6,5.7c0,2.8-1.4,5.7-4.6,5.7
			C54.1,59.4,52.7,56.6,52.7,53.7z M59.4,53.7c0-2-0.6-3.6-2.2-3.6c-1.6,0-2.2,1.6-2.2,3.6c0,2,0.6,3.6,2.2,3.6
			C58.8,57.3,59.4,55.7,59.4,53.7z"/>
	</g>
</g>
</svg>
