<?xml version="1.0" encoding="utf-8"?>
<!-- Generator: Adobe Illustrator 19.2.0, SVG Export Plug-In . SVG Version: 6.00 Build 0)  -->
<svg version="1.1" id="Warstwa_1" xmlns="http://www.w3.org/2000/svg" xmlns:xlink="http://www.w3.org/1999/xlink" x="0px" y="0px"
	 viewBox="0 0 104.9 36.6" style="enable-background:new 0 0 104.9 36.6;" xml:space="preserve">
<style type="text/css">
	.st0{fill:#606060;}
</style>
<g>
	<path class="st0" d="M12.4,0h5.7v26.6c-2.9,0.6-5.1,0.8-7.4,0.8c-7,0-10.7-3.2-10.7-9.2c0-5.8,3.9-9.6,9.9-9.6
		c0.9,0,1.6,0.1,2.5,0.3V0z M12.4,13.4c-0.7-0.2-1.2-0.3-1.9-0.3c-2.9,0-4.6,1.8-4.6,4.9c0,3.1,1.6,4.7,4.5,4.7c0.6,0,1.2,0,2-0.1
		V13.4z"/>
	<path class="st0" d="M27.2,8.9v13.3c0,4.6-0.3,6.8-1.3,8.7c-0.9,1.8-2.2,3-4.7,4.2l-5.3-2.5c2.5-1.2,3.8-2.2,4.5-3.8
		c0.8-1.6,1.1-3.5,1.1-8.5V8.9H27.2z M21.5,0h5.7v5.9h-5.7V0z"/>
	<path class="st0" d="M30.7,10.2c2.5-1.2,5-1.7,7.6-1.7c2.9,0,4.9,0.8,5.7,2.3c0.5,0.9,0.6,2,0.6,4.4v11.7c-2.6,0.4-5.8,0.6-8.2,0.6
		c-4.8,0-7-1.7-7-5.4c0-4,2.9-5.9,9.9-6.5v-1.3c0-1-0.5-1.4-2-1.4c-2.1,0-4.5,0.6-6.7,1.8V10.2z M39.7,19.3c-3.8,0.4-5,1-5,2.5
		c0,1.1,0.7,1.6,2.3,1.6c0.9,0,1.6-0.1,2.8-0.3V19.3z"/>
	<path class="st0" d="M47.5,9.8c3.4-0.9,6.2-1.3,9-1.3c2.9,0,5.1,0.7,6.3,2c1.2,1.2,1.6,2.6,1.6,5.4v11.2h-5.7v-11
		c0-2.2-0.7-3-2.8-3c-0.8,0-1.5,0.1-2.6,0.4v13.6h-5.7V9.8z"/>
	<path class="st0" d="M66.6,30.2c2,1,4,1.5,6.1,1.5c3.8,0,5.4-1.5,5.4-5.2c0,0,0-0.1,0-0.1c-1.1,0.6-2.2,0.8-3.7,0.8
		c-5,0-8.2-3.3-8.2-8.6c0-6.5,4.7-10.2,13.1-10.2c2.5,0,4.7,0.3,7.5,0.8l-2,4.1c-1.5-0.3-0.1,0-1.3-0.2v0.6l0.1,2.4l0,3.1
		c0,0.8,0,1.6,0.1,2.3c0,0.7,0,1,0,1.6c0,4.9-0.4,7.2-1.6,9.1c-1.8,2.8-4.9,4.2-9.3,4.2c-2.2,0-4.2-0.3-6.2-1.1V30.2z M78,13.1
		c-0.1,0-0.1,0-0.2,0h-0.4c-1.1,0-2.4,0.3-3.3,0.8c-1.4,0.8-2.1,2.2-2.1,4.2c0,2.9,1.4,4.5,3.9,4.5c0.8,0,1.4-0.1,2.2-0.4v-0.4v-1.6
		c0-0.7,0-1.4,0-2.2l0-2.6l0-1.9V13.1z"/>
	<path class="st0" d="M95.6,8.4c5.7,0,9.2,3.6,9.2,9.5c0,6-3.7,9.8-9.5,9.8c-5.7,0-9.3-3.6-9.3-9.4C86.2,12.1,89.8,8.4,95.6,8.4z
		 M95.5,23c2.2,0,3.5-1.8,3.5-5c0-3.1-1.3-5-3.5-5c-2.3,0-3.6,1.8-3.6,5C92,21.1,93.3,23,95.5,23z"/>
</g>
</svg>
