<?xml version="1.0" encoding="utf-8"?>
<!-- Generator: Adobe Illustrator 19.2.0, SVG Export Plug-In . SVG Version: 6.00 Build 0)  -->
<svg version="1.1" id="Warstwa_1" xmlns="http://www.w3.org/2000/svg" xmlns:xlink="http://www.w3.org/1999/xlink" x="0px" y="0px"
	 viewBox="0 0 50.5 50.5" style="enable-background:new 0 0 50.5 50.5;" xml:space="preserve">
<style type="text/css">
	.st0{fill:#606060;}
</style>
<g>
	<path class="st0" d="M-0.3,0v50.5h50.7V0H-0.3z M24.5,42.5h-7.3V29.8h7.2c0.1,0.4,0.1,0.7,0.1,1.1c0,0.4,0,0.8-0.1,1.1h-4.6v2.8
		h3.7c0.1,0.4,0.1,0.7,0.1,1.1c0,0.4,0,0.7-0.1,1.1h-3.7v3.4h4.7c0.1,0.4,0.1,0.7,0.1,1.1C24.6,41.7,24.6,42.1,24.5,42.5z
		 M34.1,40.3c-0.2,0.5-0.5,0.9-0.9,1.3c-0.4,0.4-0.9,0.6-1.5,0.8c-0.6,0.2-1.3,0.3-2.1,0.3c-0.4,0-0.7,0-1,0c-0.3,0-0.6-0.1-0.9-0.1
		c-0.3-0.1-0.5-0.1-0.8-0.2c-0.3-0.1-0.6-0.2-0.8-0.3c0-0.3,0.1-0.7,0.2-1.1c0.1-0.4,0.2-0.7,0.3-1.1c0.5,0.2,1,0.4,1.4,0.5
		c0.4,0.1,0.9,0.1,1.4,0.1c0.7,0,1.3-0.1,1.7-0.4c0.4-0.3,0.6-0.7,0.6-1.3c0-0.3-0.1-0.5-0.2-0.7c-0.1-0.2-0.2-0.3-0.4-0.5
		c-0.2-0.1-0.3-0.2-0.5-0.3c-0.2-0.1-0.4-0.2-0.6-0.3l-1.1-0.4c-0.4-0.2-0.8-0.3-1.1-0.5c-0.3-0.2-0.6-0.4-0.8-0.7
		c-0.2-0.3-0.4-0.6-0.5-0.9c-0.1-0.4-0.2-0.8-0.2-1.3c0-0.6,0.1-1.1,0.3-1.6c0.2-0.5,0.5-0.8,0.9-1.2s0.8-0.5,1.4-0.7
		c0.5-0.2,1.1-0.2,1.8-0.2c0.6,0,1.2,0,1.7,0.2c0.5,0.1,1.1,0.3,1.7,0.5c-0.1,0.7-0.3,1.4-0.6,2c-0.2-0.1-0.4-0.1-0.5-0.2
		c-0.2-0.1-0.4-0.1-0.6-0.2c-0.2,0-0.4-0.1-0.7-0.1c-0.3,0-0.6,0-0.9,0c-0.2,0-0.4,0-0.6,0c-0.2,0-0.4,0.1-0.6,0.2
		c-0.2,0.1-0.3,0.2-0.4,0.4c-0.1,0.2-0.2,0.4-0.2,0.7c0,0.2,0,0.4,0.1,0.6c0.1,0.2,0.2,0.3,0.3,0.4c0.1,0.1,0.3,0.2,0.5,0.3
		c0.2,0.1,0.4,0.1,0.5,0.2l1.1,0.4c0.5,0.2,0.9,0.4,1.2,0.5c0.4,0.2,0.7,0.4,0.9,0.7c0.3,0.3,0.5,0.6,0.6,1c0.1,0.4,0.2,0.9,0.2,1.5
		C34.4,39.2,34.3,39.8,34.1,40.3z M39.8,42.8c-0.4-0.1-0.8-0.2-1.2-0.4c-0.4-0.2-0.8-0.4-1.1-0.6l4-9.7h-5.3
		c-0.1-0.4-0.1-0.7-0.1-1.1c0-0.4,0-0.7,0.1-1.1h8.7l0.1,0.2L39.8,42.8z"/>
</g>
</svg>
