<?xml version="1.0" encoding="utf-8"?>
<!-- Generator: Adobe Illustrator 19.2.0, SVG Export Plug-In . SVG Version: 6.00 Build 0)  -->
<svg version="1.1" id="Warstwa_1" xmlns="http://www.w3.org/2000/svg" xmlns:xlink="http://www.w3.org/1999/xlink" x="0px" y="0px"
	 viewBox="0 0 118.8 46.7" style="enable-background:new 0 0 118.8 46.7;" xml:space="preserve">
<style type="text/css">
	.st0{fill:#606060;}
</style>
<g>
	<path class="st0" d="M15.6,41.6c-2-1.6-4.1-3.1-5.5-5.2c-3-3.7-5.4-8-7-12.5c-1-2.9-1.3-6.1-2.5-8.9C-0.8,12.9,0.7,10.7,3,10
		c1-0.2,2.8-1.1,0.6-0.5C1.7,11,1.5,8.3,3.5,8.1C4.8,8,5.3,6.9,4.8,5.9c-1.4-0.9,3.5-2,1-3.4C3.3-0.2,9.4-0.8,7.9,2.4
		c-0.4,2.4,4.3-0.4,3.2,2.4c1.1,1.3,4.1,0.3,4,2.2c1.6,0.1,2.2,1.5,3.7,1.6c1.6,0.7,4.4,1.3,4.9,3c-1.5,1.2-5.1-2.5-5.3,0.9
		c0.5,5,0.3,10.2,2.2,14.9c0.9,2.9,3,5.2,4.9,7.4c1.8,2.2,4.3,3.8,6.8,5.1c2.2,1,4.6,1.7,7,2.2c1-0.7,2.7-3.5,4.2-2.3
		c0.1,1.3-3,2.7-0.1,2.6c1.7-0.5,2.9,1.3,4.2-0.3c1.3,1.5,5.3-1,4.4,2.1c-1.2,0.8-3,0.3-4.3,1.4c-2-1-3.6,0.9-5.9,0.7
		c-2.5,0.4-5,0.6-7.6,0.6c-4.1-0.3-8.4-0.5-12.3-1.9C19.7,44.1,17.5,42.9,15.6,41.6L15.6,41.6z M19.1,43.1c2.2,0.9,4.3,1.9,6.7,2.2
		c3.8,0.5,7.7,1.3,11.5,0.6c-1.7-0.8-3.5,0.3-5.2-0.6c-2,0.4-4.2-0.1-6.3-0.4c-2.4-1.1-4.9-1.8-7.1-3.2c-2.8-1,1.4,1.3,2.2,1.5
		c1.7,1-1.9-0.5-2.4-0.9c-1.5-0.8-1.6-0.6-0.1,0.2C18.5,42.8,18.8,43,19.1,43.1L19.1,43.1z M14.9,40.2c2.1,0.8,0-1.5-1-1.3
		c-0.4-0.7-1.6-1.2-0.8-1.6c-1.5,0.5-1.6-2-2.3-1.7c-1.6-0.5-0.6-2.3-2.6-3.4c-0.2-1.2-1.9-2.2-2.5-4c-0.2-0.9-2-3.5-0.9-1.1
		c0.9,2.3,2.5,4.3,3.8,6.3c1,1.9,2.2,3.9,4.1,5.1C13.4,39.1,14.1,40,14.9,40.2L14.9,40.2z M8.9,33.6C8.9,33.2,9.3,34.2,8.9,33.6
		L8.9,33.6z M17.5,41.1C17.9,40.9,16.8,40.9,17.5,41.1L17.5,41.1z M18.6,41.6C18.5,41,18.1,41.9,18.6,41.6L18.6,41.6z M20,42.2
		C20.7,41.5,19,41.7,20,42.2L20,42.2z M22.5,43.5C22.9,42.9,21.2,43.3,22.5,43.5L22.5,43.5z M17.8,40.2
		C18.8,39.6,16.4,40.2,17.8,40.2L17.8,40.2z M18.8,40.8C18.8,40.4,18.5,40.9,18.8,40.8L18.8,40.8z M24.2,44.1c0.9,0.5,5,1.2,2.4,0.2
		C26.2,44.4,21.8,43.1,24.2,44.1L24.2,44.1z M15.7,37.5C15.6,37.1,14.4,37.1,15.7,37.5L15.7,37.5z M18.2,38.9
		C18.8,38.5,16.8,38.6,18.2,38.9L18.2,38.9z M20.3,40.2C21.2,39.9,18.8,39.9,20.3,40.2L20.3,40.2z M14.7,36.4c1,0.8,4.1,0.1,1.5-0.5
		c-1.2-0.6-3.7-1-2,0.4L14.7,36.4L14.7,36.4z M21.7,40.7C22.1,40,19.9,40.3,21.7,40.7L21.7,40.7z M19.6,39c2.5,0.7-2.1-1.6-0.6-0.3
		l0.3,0.1L19.6,39L19.6,39z M23.9,41.5C26.2,41.5,21.7,41.1,23.9,41.5L23.9,41.5z M13.8,35C13.7,34.6,13.2,35.1,13.8,35L13.8,35z
		 M27.8,43.7C27.9,42.9,27.1,44.3,27.8,43.7L27.8,43.7z M17.8,37.5C17.6,37.1,17,37.5,17.8,37.5L17.8,37.5z M14,34.8
		C15.3,34.7,12.2,34.2,14,34.8L14,34.8z M9.5,31.9C9.4,31.2,8.1,30.7,9.5,31.9L9.5,31.9z M21.3,39.3C21,39,21.2,39.4,21.3,39.3
		L21.3,39.3z M28.6,43.8C28.6,43.4,28.2,44,28.6,43.8L28.6,43.8z M20.6,38.6C20.8,38.1,19.5,38.5,20.6,38.6L20.6,38.6z M15.2,35.2
		C16.2,35.1,13.6,34.5,15.2,35.2L15.2,35.2z M24.4,40.9C25.9,40.3,22.9,40.6,24.4,40.9L24.4,40.9z M19.6,37.7
		c1.8,0.2-2.1-1.2-0.4-0.1L19.6,37.7L19.6,37.7z M25.8,41.5c1.7-1,1.1,2.3,2.8,0.3c1.7-1.2-1.5,1.5,0.6,0.2c1.5-1,3.7,0.5,5.2,1
		c1,0,2,0.9,3,0.3c2-0.5-3.9-0.8-2.4-1.8c-1.8,0.5-3.2-0.6-4.1-1.8c-2.1-0.5-4.4-1.5-5.5-3.3c-0.4-0.7,0.6,0.1-0.4-1
		c-1.2-1.1-1.9-2.4-2.7-3.7c-1-0.5-1.1-2.1-1.2-0.1c0-1.3-1.2-2.2-1.5-1.8c0-1.2,1.3-0.6,0.4-1.5c-0.2-1.3-0.8-2.6-1-4.1
		c-0.3-0.7,0-2.2-1-0.6c-0.4,1.7-0.1-2.1,0.4-0.8c0.7-1.3-0.3-1.1-0.3-0.9c0.5-1.1,0.3-2.6-0.1-2c0.3-1.1,0.4-4.1-0.4-3.6
		c0.5-1.2,0.9-5.4-1.2-3.8c-0.8,0-2.3,0.3-3,0.6c2.1,1.2-0.2,0.4-1.1,0.2c-0.1,1.1-1,0.6-2.1,0.6c1.7,0.2-0.8,1.8-1.8,1.2
		c-1.3,0.6,1.1,2.1,0,2.6c0.1,0.7-2-0.3-1.8,1.4c-1.2-0.5-0.2,2,0.5,1.1c2.1,0.6,1.5,1.9,1.5,3.1c-0.3,0.7-1.7-1.7-0.3-1.6
		C7.5,20,7.4,21.2,6.5,22c-0.2,0.1,2.3,1.2,0.7,1.7C8.6,24,8.7,25.2,9,26c0.8,0.9,0.7-1,1.7,0.1c-0.6-0.9-3.4-2.7-1.2-2.1
		c0-1-0.4-1.7,0.3-1.7c0.7-1.2-0.7,3,0.8,1.5c0.4-0.2,0.5-1.2,1.3,0.1c1.1,1.1,0.4,1.9-1.2,0.9c0.3,0.9,2.1,1.3,1.7,2.7
		c0.4,1.3,0.9,0.8,1.3,0.7c0.3,1.3,0.5,0.3,0.6-0.3c1.6,0.3,1.2,1.3,1.7,1.9c1.1,0.5-1.5-3.3,0.3-1.1c1.9,1.8,0.7,2.5-1,2.2
		c1.1-0.1,1.5,1.5,2.8,1.4c1.3,0.6,2.1,2.9-0.1,1.9c-0.8-0.7-3.4-1.5-1.2-0.2c2,0.9,3.6,1.5,5.6,2.7c1.4,1,2,2.1,2.5,2.4
		c-1.2,0.6-3.5-0.4-1.8-0.8c-1.1-0.2-2.3-0.8-1.3,0.6c0.9,0.7,3.1,0.7,3.6,0.7c-0.3,0.8-0.9,0.8,0,0.9
		C24.3,41.1,25.7,41.2,25.8,41.5L25.8,41.5z M23.7,35.4c-0.6-0.7-0.8-1.9-0.1-0.8C23.9,34.7,24.7,36.6,23.7,35.4L23.7,35.4z
		 M30.7,39.9C31.1,39.9,30.7,40.2,30.7,39.9L30.7,39.9z M22.7,33.8C22.6,32.8,22.9,34.5,22.7,33.8L22.7,33.8z M22,32.8
		C21.2,31.3,23,33.3,22,32.8L22,32.8z M13.5,27C14,26.9,13.7,27.8,13.5,27L13.5,27z M20.2,30.6C20.5,29.5,20.6,31.6,20.2,30.6
		L20.2,30.6z M15.5,27.3C15.1,26.7,16.2,27.9,15.5,27.3L15.5,27.3z M19.6,28.6c-0.8-1.7,0.5-0.9,0.2,0.3L19.6,28.6L19.6,28.6z
		 M12.5,23.9c-0.3-0.6-0.9-2.2-0.7-2.7c0.2,0.8,1.7,3.5,0.8,1.1c-1.1-2,1.3,0.7,1.5,1.2c0.1,0.5-0.7-0.1-0.1,1
		C13,23.2,13.4,25.3,12.5,23.9L12.5,23.9z M10.3,22.4C10.4,21.1,10.8,23.3,10.3,22.4L10.3,22.4z M11.3,22.8
		C11.8,21.8,12.1,24.1,11.3,22.8L11.3,22.8z M9,21c-0.8-0.8-1.4-1.5,0-0.5c0.6,0-1.2-1.7,0.1-0.5C10.6,20.2,9.8,22.3,9,21L9,21z
		 M10.2,20.9C10.7,20.5,10.5,21.4,10.2,20.9L10.2,20.9z M11,21.2C10.3,19.8,11.8,21.7,11,21.2L11,21.2z M9.5,19.7
		c-2.4-2.1,3,1.1,0.4,0.4L9.5,19.7L9.5,19.7z M16.2,23.6c-1-0.6-0.3-4.3,0.1-1.8c1-0.3-0.1,1.3,0.7,1.3
		C16.9,24.2,16.5,24.5,16.2,23.6L16.2,23.6z M18.7,25.1C18.8,24,18.9,25.9,18.7,25.1L18.7,25.1z M18.3,24.7
		C18.4,24.2,18.3,25.2,18.3,24.7L18.3,24.7z M9.9,19c-1.5-2.1,4.4,2.1,1,0.5C10.5,19.5,10.1,19.4,9.9,19L9.9,19z M14.7,21.6
		C14.6,19.8,15,21.9,14.7,21.6L14.7,21.6z M18.4,23.9C18.7,22.9,18.4,24.6,18.4,23.9L18.4,23.9z M10.1,18.2c0.9-0.2,3.7,1.6,1.1,0.5
		C11,18.4,10.4,18.6,10.1,18.2L10.1,18.2z M17.9,22.1c0.1-1.8,0.5-1.1,0,0.3L17.9,22.1L17.9,22.1z M10.8,17.6c0.4-0.5-1-2.4,0.2-0.7
		c0.5,0.4,1.5,0.7,0.6,0.8C13,18.9,11.3,18.1,10.8,17.6L10.8,17.6z M17.5,21.5C17.7,19.5,17.7,22.7,17.5,21.5L17.5,21.5z M10.1,15.7
		C10.3,15.6,10.2,16.1,10.1,15.7L10.1,15.7z M11.8,16.7C12.2,15.8,12.6,17.8,11.8,16.7L11.8,16.7z M16.7,19.5
		C16.7,19.1,16.8,20,16.7,19.5L16.7,19.5z M16.4,18.9C15.7,17.2,17.1,19.7,16.4,18.9L16.4,18.9z M16,17.7
		C15.9,17.1,16.4,18.6,16,17.7L16,17.7z M16.7,16.6c-0.5-0.8,0.6-3.6,0.7-1.9c-0.5,1.4-0.1,2.1,0.2,0.3
		C18.2,13.6,17.5,17.9,16.7,16.6L16.7,16.6z M17.4,12.5C17.6,12.2,17.4,12.8,17.4,12.5L17.4,12.5z M16.2,35.5
		C15.9,35.3,16.2,35.7,16.2,35.5L16.2,35.5z M18.6,36.7c1.3,0.3,1.3-0.2,0.1-0.4c-0.7-0.6-2.7-1.2-0.9-0.1
		C18,36.6,18.4,36.6,18.6,36.7L18.6,36.7z M13.9,33.6c0.7,0.6,2.8,1.6,1.1,0.2c0.6-0.7-1.1-1-0.6-1.5c-1.4-0.9-1.1-0.8-0.1-0.8
		c-1.7-0.8,0.2-0.7,0.2-1.1c-0.7-0.1-3.3-1.2-1.7,0.1c-1.6-0.8-0.4,0.3-0.9,0.2c-1.6-0.4,1.4,1.2-0.3,0.8c0.9,0.7,2.5,1.9,0.4,0.8
		C11.7,32.7,13.4,33.3,13.9,33.6L13.9,33.6z M16.4,35C19.4,36,14.9,33.8,16.4,35L16.4,35z M29.3,42.8C29.3,42.2,28.9,43.3,29.3,42.8
		L29.3,42.8z M30.6,43.4c0.7-0.7,0,1.1,1.2-0.2c0-0.9,0-1.4-1.3-0.3C30.1,43.1,30,43.9,30.6,43.4L30.6,43.4z M9.6,30.2
		C9.4,29.3,8,29.3,9.6,30.2L9.6,30.2z M11,31.1C10.5,30.2,9.1,30.3,11,31.1L11,31.1z M19,35.9c0.8,0.7,3.6,0.5,1,0.1
		C19.6,35.4,17.5,35.6,19,35.9L19,35.9z M30.1,42.8C31.3,41.8,28.9,43.2,30.1,42.8L30.1,42.8z M32.6,44.5
		C32.6,44.2,32.1,44.6,32.6,44.5L32.6,44.5z M32.6,44.1C34,42.6,31.3,44.1,32.6,44.1L32.6,44.1z M6.1,27.2c-1.1-1.6-0.7-2.4-1.8-3.7
		c-0.2-1-1.9-3.3-0.9-0.9C4.3,24.1,4.6,26.3,6.1,27.2L6.1,27.2z M32.2,43.6C34.7,42,31.2,42.9,32.2,43.6L32.2,43.6z M34.1,44.3
		C35.3,43.3,33.3,44.1,34.1,44.3L34.1,44.3z M9.1,28.4C9.5,27.8,8.2,28.3,9.1,28.4L9.1,28.4z M33.7,43.8c1.2-0.8-0.3-0.7-0.2,0.1
		L33.7,43.8L33.7,43.8z M17.5,33.6C17.4,33.1,16.8,33.7,17.5,33.6L17.5,33.6z M18.5,34.2C18.2,33.5,18,34.3,18.5,34.2L18.5,34.2z
		 M35.6,44.4c1.5-1.1-0.9-0.2-0.3,0.2L35.6,44.4L35.6,44.4z M35,44.1C36.3,43,33.7,44.5,35,44.1L35,44.1z M38,46.1
		C38.8,45.5,37,45.9,38,46.1L38,46.1z M9.9,28c1.1,0.3,4.5,2.8,2.5,0.2c-1-0.3-0.4-2.8-1.4-2.3c0.7,1.2,0.6,1.7-0.9,0.9
		c-1.8-0.9-1,0.4-0.7,0.8C8.9,27.7,10.1,28,9.9,28L9.9,28z M4.8,23.9c0.2-0.8-1.9-4.6-1-1.9C4.2,22.6,4.1,23.7,4.8,23.9L4.8,23.9z
		 M14.2,29.7C13.6,29.2,14.2,29.7,14.2,29.7L14.2,29.7z M15.6,30.1C15.6,29.2,14,29.7,15.6,30.1L15.6,30.1z M27.9,37.8
		C27.7,37.2,27,37.8,27.9,37.8L27.9,37.8z M28.5,38.3C28.4,37.9,28.2,38.3,28.5,38.3L28.5,38.3z M33.4,41.3
		C33.9,41,32.8,41.3,33.4,41.3L33.4,41.3z M7.4,24.6C8.7,24.1,5.9,24.2,7.4,24.6L7.4,24.6z M26.9,36.9C26.8,36,26,37.1,26.9,36.9
		L26.9,36.9z M6.8,23.4C7.7,23.1,6,23.2,6.8,23.4L6.8,23.4z M9.3,24.6C9.3,24.3,9.1,24.7,9.3,24.6L9.3,24.6z M39.9,43.3
		c1.1-0.2,3.6,0.6,4.1-0.3c-1.3,0-4.7-1-4.8,0.2l0.3,0L39.9,43.3L39.9,43.3z M10.1,24.8C10.1,23.9,9.4,24.7,10.1,24.8L10.1,24.8z
		 M3.5,20.2C3.2,18.5,2.4,19.9,3.5,20.2L3.5,20.2z M5.1,20.6C5.1,20.1,3.7,20.1,5.1,20.6L5.1,20.6z M6,21C5.7,20.8,5.8,21.3,6,21
		L6,21z M11.7,24.7C11.9,24.4,11,24.5,11.7,24.7L11.7,24.7z M5.4,20C5.3,18.8,3.6,19.9,5.4,20L5.4,20z M2.2,18
		C2.1,17.4,1.9,18.2,2.2,18L2.2,18z M2.7,17.6C2.6,16.9,2.3,17.7,2.7,17.6L2.7,17.6z M5.3,19.2c1.1-0.4-2-0.9-0.2-0.1L5.3,19.2
		L5.3,19.2z M40.8,41.1C41.5,40.4,39.9,40.9,40.8,41.1L40.8,41.1z M45,43.3C45.3,42.4,44.3,43.4,45,43.3L45,43.3z M5.6,17.8
		C5.7,17,4.7,17.9,5.6,17.8L5.6,17.8z M1.8,15.3c-0.2-1.2-0.2-3.2,1.8-2.5C1,13.3,5.4,16,4.8,13.8c1.1,0.1,2.1-0.6,1.6,0.4
		c2.1-0.2,3.6-2.1,5.7-1.8c1.6-0.2,3.4-0.4,5.1-1c1.4-0.1,2.8-1.6,2-2.6c-1.9-0.2-4,0.1-6.1,0.5c-2.4,0.5-4.5,1.4-7,1.8
		c-2.3,0.3,0.5,0.9-0.2,1c-1.2,0.4,1.5,0.7-0.2,1.2c-1-0.2-2-0.5-1.6-1.6C1.9,12-0.1,13,1.7,15.3L1.8,15.3L1.8,15.3z M7.2,12.5
		c0.5-1.9,2.8,1.6,0.9,0.3C7.9,12.6,7.5,12.4,7.2,12.5L7.2,12.5z M7.3,11.6C8.1,11,7.7,11.9,7.3,11.6L7.3,11.6z M8.3,11.6
		c0.1-0.9,2.2,0.5,0.4,0.3L8.3,11.6L8.3,11.6z M9.6,11C10.1,10.5,9.8,11.5,9.6,11L9.6,11z M10,10.8c0.8-1,4.5-0.6,1.8-0.1
		C11,10.2,10.5,11.1,10,10.8L10,10.8z M14.8,10.1C14.7,7.4,17.3,11,14.8,10.1L14.8,10.1z M16.2,10.1c0.5-1.3,2-0.5,0.2-0.3
		C16.5,9.9,16.4,10.5,16.2,10.1L16.2,10.1z M5,17.1C6.6,16.2,3.4,16.3,5,17.1L5,17.1z M6.2,17.4C6.7,16.8,5,17.2,6.2,17.4L6.2,17.4z
		 M2.9,15.1C3.7,14.4,1.8,14.8,2.9,15.1L2.9,15.1z M47.6,43C47.6,42.3,46.9,43.4,47.6,43L47.6,43z M43,39.9
		C43.2,39.1,42.4,40,43,39.9L43,39.9z M48.8,43.3c1.2,0,3.7-0.4,1-0.4C49.4,43,47.4,43,48.8,43.3L48.8,43.3z M7.1,16.9
		c1-0.1,1.5-1.1-0.2-1c-2.7-0.3,2.4,0.9-0.3,0.6C6.2,16.7,7.1,16.9,7.1,16.9L7.1,16.9z M8,17.3C7.9,16.7,7.7,17.6,8,17.3L8,17.3z
		 M9,14.6C9.5,14,8.4,14.4,9,14.6L9,14.6z M5.8,9.1c1.7-0.6,4.1-1.3,5,0.3c-0.8-1-0.3-2,0.5-0.5c1.1,1.5,1.7-0.7,1-1.2
		c0.8,1,1.8,1.5,0.6,0.1C14,6.2,10,8,9.1,8C8.7,8.2,4.6,9,5.8,9.1L5.8,9.1z M6.8,7.2c1-0.8,3.4,0.4,1.9-0.7C8.5,6.3,5.2,7.3,6.8,7.2
		L6.8,7.2z M10.4,7.3c1.2,0-0.5-1.6,0.9-0.8C11.1,5.7,9.7,5.6,9,5.3C8.6,6,9.8,7.3,10.4,7.3L10.4,7.3z M7.4,4C7.8,3.5,6.7,4.3,7.4,4
		L7.4,4z M8.9,4.4c1.9-0.2-0.5-0.8-0.4,0L8.9,4.4L8.9,4.4z M6.1,2.2C4.8,0.5,8.6,2.5,7.3,0.7C6.2-0.2,5.1,1.7,6.1,2.2L6.1,2.2z
		 M23.1,11.4c0.6-1.1-2.5-1.5-0.4-0.4C22.9,11,22.9,11.4,23.1,11.4L23.1,11.4z"/>
	<g transform="translate(0.000000, 244.000000)">
		<path class="st0" d="M52.5-240.7c-0.2,0.9-0.4,2.3-0.4,4.3c0,0.4-0.2,0.6-0.5,0.6c-0.4,0-0.6-0.2-0.7-0.5
			c-0.4-0.9-0.7-1.6-1.1-1.9c-0.4-0.4-0.9-0.7-1.6-0.8c-0.7-0.1-2.5-0.2-5.4-0.2c-0.7,0-1.1,0.1-1.3,0.2c-0.1,0.1-0.2,0.3-0.2,0.6
			v8.7c0,0.3,0.2,0.4,0.6,0.4c1.1,0,2.8-0.1,4.9-0.2c0.4-0.1,0.7-0.2,0.9-0.4c0.1-0.2,0.3-0.8,0.4-1.7c0.1-0.5,0.4-0.7,0.9-0.6
			c0.4,0.1,0.6,0.3,0.6,0.6c-0.4,1.7-0.5,4-0.3,6.8c0,0.3-0.2,0.5-0.6,0.5c-0.4,0-0.6-0.2-0.7-0.6c-0.3-1.6-0.9-2.4-1.8-2.6
			c-0.9-0.1-2.4-0.2-4.4-0.2c-0.2,0-0.3,0.1-0.3,0.2v8.6c0,0.6,0.2,1.1,0.7,1.3c0.4,0.2,1.2,0.4,2.4,0.5c0.6,0.1,0.9,0.3,0.8,0.8
			c-0.1,0.4-0.6,0.6-1.7,0.5c-3-0.2-5.5-0.2-7.5,0c-0.5,0.1-0.8-0.1-0.8-0.7c0-0.3,0.3-0.5,0.8-0.6c1.2-0.1,1.9-1.2,1.9-3.3v-16.4
			c0-0.8-0.1-1.5-0.4-1.9c-0.3-0.5-0.9-0.9-1.7-1.2c-0.5-0.2-0.7-0.5-0.6-0.9c0.1-0.2,0.2-0.4,0.3-0.4c0.1,0,0.5,0,1,0.1
			c0.8,0.1,2.7,0.2,5.7,0.2c3.5,0,6.6-0.1,9.1-0.2c0.9-0.1,1.3,0,1.3,0.2C52.5-240.8,52.5-240.7,52.5-240.7L52.5-240.7z"/>
		<path class="st0" d="M64.9-216.4c0,0.5-0.3,0.7-0.9,0.7c-1.8-0.2-3.9-0.1-6.5,0.1c-0.5,0.1-0.8,0-1,0c-0.1-0.1-0.2-0.3-0.2-0.6
			c0-0.3,0.3-0.6,1-0.8c0.7-0.2,1-0.8,1-1.9v-17.3c0-1-0.1-1.8-0.4-2.3c-0.3-0.5-0.8-0.9-1.6-1.1c-0.4-0.1-0.6-0.3-0.6-0.6
			c0-0.4,0.3-0.7,0.9-0.9c0.9-0.3,1.8-0.7,2.7-1.3c0.8-0.5,1.2-0.7,1.5-0.7c0.5,0,0.7,0.3,0.7,1c0-0.1,0,0.6-0.1,1.9
			c0,1.3-0.1,2.5,0,3.7l0.1,17.1c0,0.8,0.2,1.3,0.6,1.7c0.4,0.4,1,0.6,2,0.7C64.6-217,64.9-216.8,64.9-216.4L64.9-216.4z"/>
		<path class="st0" d="M82.1-217.5c0,0.3-0.5,0.7-1.5,1.2c-1,0.5-1.8,0.8-2.3,0.8c-0.5,0-0.9-0.2-1.3-0.7c-0.4-0.5-0.7-0.7-0.8-0.7
			c-0.1,0-0.7,0.3-1.8,0.8c-1.1,0.5-2.2,0.8-3.3,0.8c-1,0-1.9-0.3-2.6-0.9c-0.8-0.7-1.1-1.6-1.1-2.8c0-2.2,2.5-3.8,7.6-4.7
			c0.9-0.2,1.3-0.5,1.3-1.1l0-1.2c0.1-2.1-0.8-3.1-2.8-3.1c-0.5,0-1.1,0.5-1.6,1.5c-0.5,1-1.2,1.5-2.1,1.6c-1,0.1-1.6-0.3-1.6-1.3
			c0-0.6,0.8-1.3,2.3-2.1c1.6-0.9,3.2-1.3,4.7-1.3c2.6,0,3.9,1.2,3.8,3.7l-0.1,7.9c0,0.8,0.3,1.2,1.1,1.2c0.1,0,0.4,0,0.8-0.1
			c0.4-0.1,0.6-0.1,0.7-0.1C82-218.3,82.1-218,82.1-217.5L82.1-217.5z M76.3-221.9c0-0.3-0.1-0.5-0.2-0.6c-0.2-0.1-0.4-0.1-0.8-0.1
			c-3.1,0.5-4.6,1.5-4.6,3c0,1.5,0.8,2.2,2.4,2.2c0.6,0,1.3-0.1,2-0.4c0.8-0.3,1.2-0.6,1.2-1L76.3-221.9z"/>
		<path class="st0" d="M96.3-219.7c0,1.4-0.5,2.4-1.6,3.2c-1,0.8-2.5,1.2-4.3,1.2c-1.2,0-2.4-0.1-3.6-0.4c-1-0.2-1.6-0.4-1.8-0.6
			c-0.1-0.2-0.2-1.1-0.2-2.6c0-0.7,0.2-1,0.5-1.1c0.3,0,0.6,0.1,0.8,0.5c1,1.7,2.5,2.5,4.6,2.5c1.8,0,2.7-0.6,2.7-1.9
			c0-0.5-0.2-1-0.6-1.4c-0.4-0.4-1.3-0.9-2.6-1.5c-1.9-0.8-3.1-1.6-3.7-2.2c-0.7-0.7-1-1.6-1-2.7c0-1.4,0.5-2.4,1.6-3.2
			c1-0.7,2.3-1.1,3.9-1.1c1,0,2,0.1,2.8,0.2c0.9,0.2,1.4,0.4,1.4,0.6c0.1,0.7,0.3,1.7,0.6,3.1c0,0.2-0.1,0.3-0.5,0.4
			c-0.4,0.1-0.7,0-0.8-0.2c-1-1.6-2.3-2.5-3.8-2.5c-1.7,0-2.6,0.6-2.6,1.7c0,0.6,0.2,1.1,0.7,1.5c0.4,0.3,1.4,0.8,3,1.5
			c1.6,0.7,2.7,1.3,3.3,1.9C96-221.9,96.3-221,96.3-219.7L96.3-219.7z"/>
		<path class="st0" d="M118.8-216.4c0,0.4-0.3,0.7-0.9,0.7c-0.9,0-2.1,0.1-3.5,0.2c-0.7,0.1-1.2,0.1-1.5-0.3c-2-2.2-3.7-4.4-5.1-6.8
			c-0.1-0.2-0.3-0.3-0.4-0.3c-0.2,0-0.6,0.2-1.1,0.6c-0.6,0.3-0.9,0.8-0.9,1.4c0,0.4,0,1.1,0,1.9c0,0.8,0.2,1.3,0.6,1.6
			c0.3,0.2,0.9,0.3,1.9,0.4c0.6,0.1,0.9,0.3,0.9,0.7c0,0.3,0,0.5-0.1,0.5c-0.1,0.1-0.3,0.1-0.8,0c-1.3-0.1-3.4-0.1-6.5,0.2
			c-0.8,0.1-1.2,0-1.2-0.3c0-0.1,0-0.2,0-0.4c0-0.4,0.4-0.7,1.2-0.9c0.7-0.2,1.1-1,1.1-2.5v-16.7c0-1-0.1-1.8-0.3-2.2
			c-0.3-0.5-0.9-0.9-1.8-1.2c-0.4-0.1-0.6-0.3-0.6-0.6c0-0.4,0.3-0.7,0.9-0.9c1-0.3,1.9-0.8,2.7-1.3c0.7-0.5,1.1-0.7,1.3-0.7
			c0.5,0,0.8,0.3,0.8,1c0-0.1,0,0.5,0,1.9c0,0.9,0,2.2,0,3.7l0,12c0,0.3,0.1,0.5,0.3,0.5c0.2,0,0.5-0.2,0.9-0.5
			c1.1-0.8,2.4-1.9,3.9-3.2c0.3-0.3,0.5-0.6,0.5-0.8c0-0.3-0.5-0.6-1.5-0.7c-0.4-0.1-0.7-0.3-0.6-0.7c0-0.4,0.3-0.6,0.7-0.6
			c0.9,0.1,2.3,0.2,4,0.2c1.2,0,2.4,0,3.7,0c0.4,0,0.6,0.2,0.6,0.7c0,0.4-0.3,0.7-0.9,0.7c-1,0-1.9,0.3-2.8,0.7
			c-1.2,0.5-2.5,1.5-3.9,2.9c-0.1,0.1-0.2,0.2-0.2,0.3c0,0.2,0.2,0.6,0.7,1.3c1.6,2.4,3.1,4.2,4.5,5.5c0.9,0.8,1.8,1.2,2.5,1.2
			c0.6,0,1,0,1.1,0.1C118.8-217,118.8-216.7,118.8-216.4L118.8-216.4z"/>
	</g>
</g>
</svg>
