<?xml version="1.0" encoding="utf-8"?>
<!-- Generator: Adobe Illustrator 19.2.0, SVG Export Plug-In . SVG Version: 6.00 Build 0)  -->
<svg version="1.1" id="Warstwa_1" xmlns="http://www.w3.org/2000/svg" xmlns:xlink="http://www.w3.org/1999/xlink" x="0px" y="0px"
	 viewBox="0 0 130.7 35.4" style="enable-background:new 0 0 130.7 35.4;" xml:space="preserve">
<style type="text/css">
	.st0{fill-rule:evenodd;clip-rule:evenodd;fill:#606060;}
	.st1{fill:#606060;}
</style>
<g>
	<path class="st0" d="M19.7,18.9c0-0.4-0.2-0.7-0.5-0.9l-8.8-5c-0.1-0.1-0.3-0.1-0.5-0.1c0,0-0.1,0-0.1,0c-0.2,0-0.3,0.1-0.5,0.1
		l-8.8,5C0.2,18.1,0,18.5,0,18.9l0,13.6c0,0.2,0.1,0.4,0.3,0.5c0.2,0.1,0.4,0.1,0.5,0l5.2-3c0.3-0.2,0.5-0.5,0.5-0.9v-6.4
		c0-0.4,0.2-0.7,0.5-0.9l2.2-1.3c0.2-0.1,0.3-0.1,0.5-0.1c0.2,0,0.4,0,0.5,0.1l2.2,1.3c0.3,0.2,0.5,0.5,0.5,0.9V29
		c0,0.4,0.2,0.7,0.5,0.9l5.2,3c0.2,0.1,0.4,0.1,0.5,0c0.2-0.1,0.3-0.3,0.3-0.5L19.7,18.9z"/>
	<path class="st0" d="M66.5,0.2c-0.2-0.1-0.4-0.1-0.5,0c-0.2,0.1-0.3,0.3-0.3,0.5v13.5c0,0.1-0.1,0.3-0.2,0.3
		c-0.1,0.1-0.3,0.1-0.4,0L63,13.2c-0.3-0.2-0.7-0.2-1.1,0l-8.8,5.1c-0.3,0.2-0.5,0.5-0.5,0.9v10.1c0,0.4,0.2,0.7,0.5,0.9l8.8,5.1
		c0.3,0.2,0.7,0.2,1.1,0l8.8-5.1c0.3-0.2,0.5-0.5,0.5-0.9V4c0-0.4-0.2-0.7-0.5-0.9L66.5,0.2z M65.7,26c0,0.1-0.1,0.2-0.1,0.2l-3,1.7
		c-0.1,0-0.2,0-0.3,0l-3-1.7c-0.1,0-0.1-0.1-0.1-0.2v-3.5c0-0.1,0.1-0.2,0.1-0.2l3-1.7c0.1,0,0.2,0,0.3,0l3,1.7
		c0.1,0,0.1,0.1,0.1,0.2V26z"/>
	<path class="st0" d="M97.9,22.4c0.3-0.2,0.5-0.5,0.5-0.9V19c0-0.4-0.2-0.7-0.5-0.9L89.2,13c-0.3-0.2-0.7-0.2-1.1,0l-8.8,5.1
		c-0.3,0.2-0.5,0.5-0.5,0.9v10.1c0,0.4,0.2,0.7,0.5,0.9l8.7,5c0.3,0.2,0.7,0.2,1,0l5.3-2.9c0.2-0.1,0.3-0.3,0.3-0.5
		c0-0.2-0.1-0.4-0.3-0.5l-8.8-5.1c-0.2-0.1-0.3-0.3-0.3-0.5v-3.2c0-0.2,0.1-0.4,0.3-0.5l2.7-1.6c0.2-0.1,0.4-0.1,0.5,0l2.7,1.6
		c0.2,0.1,0.3,0.3,0.3,0.5V25c0,0.2,0.1,0.4,0.3,0.5c0.2,0.1,0.4,0.1,0.5,0L97.9,22.4z"/>
	<path class="st0" d="M35.6,13c0.3-0.2,0.7-0.2,1.1,0l8.8,5.1c0.3,0.2,0.5,0.5,0.5,0.9v10.1c0,0.4-0.2,0.7-0.5,0.9l-8.8,5.1
		c-0.3,0.2-0.7,0.2-1.1,0L26.9,30c-0.3-0.2-0.5-0.5-0.5-0.9V19c0-0.4,0.2-0.7,0.5-0.9L35.6,13z"/>
	<path class="st1" d="M115,35.2c-0.3,0-0.6-0.1-0.9-0.2l-2.8-1.6c-0.4-0.2-0.2-0.3-0.1-0.4c0.6-0.2,0.7-0.2,1.2-0.6
		c0.1,0,0.1,0,0.2,0l2.1,1.3c0.1,0,0.2,0,0.3,0l8.3-4.8c0.1,0,0.1-0.1,0.1-0.2v-9.6c0-0.1,0-0.2-0.1-0.2l-8.3-4.8
		c-0.1,0-0.2,0-0.3,0l-8.3,4.8c-0.1,0-0.1,0.1-0.1,0.2v9.6c0,0.1,0.1,0.2,0.1,0.2l2.3,1.3c1.2,0.6,2-0.1,2-0.8V20
		c0-0.1,0.1-0.2,0.2-0.2h1c0.1,0,0.2,0.1,0.2,0.2v9.4c0,1.6-0.9,2.6-2.5,2.6c-0.5,0-0.9,0-1.9-0.5l-2.2-1.2
		c-0.5-0.3-0.9-0.9-0.9-1.5v-9.6c0-0.6,0.3-1.2,0.9-1.5l8.3-4.8c0.5-0.3,1.2-0.3,1.7,0l8.3,4.8c0.5,0.3,0.9,0.9,0.9,1.5v9.6
		c0,0.6-0.3,1.2-0.9,1.5l-8.3,4.8C115.6,35.2,115.3,35.2,115,35.2z"/>
	<path class="st1" d="M117.5,28.7c-3.6,0-4.4-1.7-4.4-3.1c0-0.1,0.1-0.2,0.2-0.2h1.1c0.1,0,0.2,0.1,0.2,0.2c0.2,1.1,0.6,1.6,2.8,1.6
		c1.7,0,2.5-0.4,2.5-1.3c0-0.5-0.2-0.9-2.9-1.2c-2.3-0.2-3.7-0.7-3.7-2.5c0-1.7,1.4-2.7,3.8-2.7c2.7,0,4,0.9,4.1,2.9
		c0,0.1,0,0.1-0.1,0.2c0,0-0.1,0.1-0.2,0.1H120c-0.1,0-0.2-0.1-0.2-0.2c-0.3-1.1-0.9-1.5-2.6-1.5c-1.9,0-2.1,0.7-2.1,1.2
		c0,0.6,0.3,0.8,2.8,1.1c2.5,0.3,3.8,0.8,3.8,2.6C121.6,27.6,120.1,28.7,117.5,28.7z"/>
	<path class="st0" d="M88.5,21.9c0.1,0,0.1,0,0.2,0l1.7,1c0.1,0,0.1,0.1,0.1,0.2V25c0,0.1,0,0.1-0.1,0.2l-1.7,1c-0.1,0-0.1,0-0.2,0
		l-1.7-1c-0.1,0-0.1-0.1-0.1-0.2v-1.9c0-0.1,0-0.1,0.1-0.2L88.5,21.9z"/>
	<g>
		<g>
			<path class="st1" d="M130.7,15.5c0,0.9-0.7,1.6-1.6,1.6c-0.9,0-1.6-0.7-1.6-1.6c0-0.9,0.7-1.6,1.6-1.6
				C130,13.9,130.7,14.6,130.7,15.5z M127.8,15.5c0,0.7,0.6,1.3,1.3,1.3c0.7,0,1.3-0.6,1.3-1.3c0-0.7-0.6-1.3-1.3-1.3
				C128.4,14.1,127.8,14.7,127.8,15.5z M128.5,14.6h0.6c0.2,0,0.6,0,0.6,0.5c0,0.3-0.2,0.4-0.3,0.4c0.2,0,0.3,0.2,0.3,0.4
				c0,0.1,0,0.4,0.1,0.5h-0.4c0-0.1-0.1-0.5-0.1-0.6c0-0.1-0.1-0.2-0.2-0.2h-0.3v0.7h-0.3V14.6z M128.9,15.3h0.3
				c0.2,0,0.3-0.2,0.3-0.3c0-0.2-0.2-0.2-0.3-0.2h-0.3V15.3z"/>
		</g>
	</g>
</g>
</svg>
