<?xml version="1.0" encoding="utf-8"?>
<!-- Generator: Adobe Illustrator 19.2.0, SVG Export Plug-In . SVG Version: 6.00 Build 0)  -->
<svg version="1.1" id="Warstwa_1" xmlns="http://www.w3.org/2000/svg" xmlns:xlink="http://www.w3.org/1999/xlink" x="0px" y="0px"
	 viewBox="0 0 179.4 43.2" style="enable-background:new 0 0 179.4 43.2;" xml:space="preserve">
<style type="text/css">
	.st0{fill:#606060;}
</style>
<g>
	<path class="st0" d="M33,0H10.7C4.8,0,0,4.8,0,10.7v21.8c0,5.9,4.8,10.7,10.7,10.7H33c5.9,0,10.7-4.8,10.7-10.7V10.7
		C43.6,4.8,38.8,0,33,0z M21.6,31.3L8.5,29.1l13.1-2.7l13.1,2.7L21.6,31.3z M21.6,25.9l-14.2,3l14.2-19l14.2,19L21.6,25.9z"/>
	<g>
		<path class="st0" d="M175.4,12.4V10h-0.8V9.5h2.3V10h-0.8v2.4H175.4z"/>
		<path class="st0" d="M177.2,12.4V9.5h0.9l0.5,1.9l0.5-1.9h0.9v2.8h-0.5v-2.2l-0.6,2.2h-0.6l-0.6-2.2v2.2H177.2z"/>
	</g>
	<g>
		<path class="st0" d="M58.1,10.9c1.4-0.2,3.2-0.4,5.4-0.4c2.8,0,4.9,0.7,6.2,1.8c1.2,1,1.9,2.6,1.9,4.6c0,2-0.6,3.5-1.7,4.7
			c-1.5,1.6-3.9,2.4-6.7,2.4c-0.8,0-1.6,0-2.3-0.2v8.8h-2.8V10.9z M60.9,21.5c0.6,0.2,1.4,0.2,2.3,0.2c3.4,0,5.5-1.7,5.5-4.7
			c0-2.9-2.1-4.3-5.2-4.3c-1.2,0-2.2,0.1-2.7,0.2V21.5z"/>
		<path class="st0" d="M77.2,16.8l3.4,9.3c0.4,1,0.8,2.3,1,3.2h0.1c0.3-0.9,0.6-2.1,1-3.3l3.1-9.2h3l-4.3,11.2
			c-2.1,5.4-3.4,8.1-5.4,9.9c-1.4,1.2-2.8,1.7-3.5,1.8L75,37.4c0.7-0.2,1.7-0.7,2.5-1.4c0.8-0.6,1.7-1.7,2.4-3.2
			c0.1-0.3,0.2-0.5,0.2-0.7c0-0.2-0.1-0.4-0.2-0.7l-5.8-14.5H77.2z"/>
		<path class="st0" d="M92.4,21.8c0-1.9,0-3.5-0.1-4.9h2.5l0.1,3.1H95c0.7-2.1,2.5-3.5,4.4-3.5c0.3,0,0.5,0,0.8,0.1v2.7
			c-0.3-0.1-0.6-0.1-1-0.1c-2,0-3.5,1.5-3.8,3.6c-0.1,0.4-0.1,0.9-0.1,1.3v8.4h-2.9V21.8z"/>
		<path class="st0" d="M114.4,28.8c0,1.4,0.1,2.7,0.2,3.8h-2.6l-0.2-2h-0.1c-0.9,1.2-2.6,2.3-4.8,2.3c-3.2,0-4.8-2.2-4.8-4.5
			c0-3.8,3.4-5.9,9.5-5.9v-0.3c0-1.3-0.4-3.6-3.6-3.6c-1.5,0-3,0.4-4.1,1.2l-0.7-1.9c1.3-0.8,3.2-1.4,5.2-1.4c4.8,0,6,3.3,6,6.4
			V28.8z M111.7,24.6c-3.1-0.1-6.7,0.5-6.7,3.5c0,1.9,1.2,2.7,2.7,2.7c2.1,0,3.4-1.3,3.9-2.6c0.1-0.3,0.1-0.7,0.1-0.9V24.6z"/>
		<path class="st0" d="M120,21.1c0-1.7-0.1-3-0.1-4.3h2.5l0.1,2.6h0.1c0.9-1.5,2.3-2.9,5-2.9c2.1,0,3.7,1.3,4.4,3.2h0.1
			c0.5-0.9,1.1-1.6,1.8-2.1c0.9-0.7,2-1.1,3.5-1.1c2.1,0,5.2,1.4,5.2,6.8v9.2h-2.8v-8.9c0-3.1-1.1-4.9-3.4-4.9
			c-1.7,0-2.9,1.2-3.4,2.6c-0.1,0.4-0.2,0.9-0.2,1.4v9.7h-2.8v-9.4c0-2.5-1.1-4.3-3.3-4.3c-1.8,0-3.1,1.4-3.5,2.9
			c-0.2,0.4-0.2,0.9-0.2,1.4v9.5H120V21.1z"/>
		<path class="st0" d="M151.4,12.4c0,1-0.7,1.8-1.8,1.8c-1,0-1.7-0.8-1.7-1.8c0-1,0.7-1.8,1.8-1.8C150.6,10.6,151.4,11.4,151.4,12.4
			z M148.2,32.6V16.8h2.9v15.8H148.2z"/>
		<path class="st0" d="M170.3,9.5v19c0,1.4,0.1,3,0.1,4.1h-2.5l-0.1-2.7h-0.1c-0.8,1.8-2.7,3.1-5.3,3.1c-3.8,0-6.8-3.2-6.8-8
			c0-5.2,3.3-8.4,7.1-8.4c2.4,0,4,1.1,4.8,2.4h0.1V9.5H170.3z M167.5,23.3c0-0.4,0-0.8-0.1-1.2c-0.4-1.8-2-3.3-4.1-3.3
			c-3,0-4.7,2.6-4.7,6.1c0,3.2,1.6,5.8,4.7,5.8c1.9,0,3.7-1.3,4.2-3.4c0.1-0.4,0.1-0.8,0.1-1.2V23.3z"/>
	</g>
</g>
</svg>
