<?xml version="1.0" encoding="utf-8"?>
<!-- Generator: Adobe Illustrator 19.2.0, SVG Export Plug-In . SVG Version: 6.00 Build 0)  -->
<svg version="1.1" id="Warstwa_1" xmlns="http://www.w3.org/2000/svg" xmlns:xlink="http://www.w3.org/1999/xlink" x="0px" y="0px"
	 viewBox="0 0 41.3 41.9" style="enable-background:new 0 0 41.3 41.9;" xml:space="preserve">
<style type="text/css">
	.st0{fill:#606060;}
</style>
<g>
	<path class="st0" d="M20.4,0.2c-1.7,0-3.3,0.1-4.8,0.4c-4.2,0.7-5,2.3-5,5.2v3.8h9.9v1.3h-9.9H6.9c-2.9,0-5.4,1.7-6.2,5
		c-0.9,3.8-1,6.2,0,10.1c0.7,2.9,2.4,5,5.3,5h3.4v-4.5c0-3.3,2.8-6.2,6.2-6.2h9.9c2.8,0,5-2.3,5-5.1V5.7c0-2.7-2.3-4.7-5-5.2
		C23.9,0.3,22.1,0.2,20.4,0.2 M15,3.2c1,0,1.9,0.9,1.9,1.9C16.9,6.2,16,7,15,7c-1,0-1.9-0.8-1.9-1.9C13.1,4.1,14,3.2,15,3.2"/>
	<path class="st0" d="M31.8,10.8v4.4c0,3.4-2.9,6.3-6.2,6.3h-9.9c-2.7,0-5,2.3-5,5.1V36c0,2.7,2.3,4.3,5,5.1c3.1,0.9,6.2,1.1,9.9,0
		c2.5-0.7,5-2.2,5-5.1v-3.8h-9.9V31h9.9h5c2.9,0,4-2,5-5c1.1-3.1,1-6.1,0-10.1c-0.7-2.9-2.1-5-5-5H31.8z M26.2,34.8
		c1,0,1.9,0.8,1.9,1.9c0,1.1-0.8,1.9-1.9,1.9s-1.9-0.9-1.9-1.9C24.3,35.6,25.2,34.8,26.2,34.8"/>
</g>
</svg>
