<?xml version="1.0" encoding="utf-8"?>
<!-- Generator: Adobe Illustrator 19.2.0, SVG Export Plug-In . SVG Version: 6.00 Build 0)  -->
<svg version="1.1" id="Warstwa_1" xmlns="http://www.w3.org/2000/svg" xmlns:xlink="http://www.w3.org/1999/xlink" x="0px" y="0px"
	 viewBox="0 0 152 49.6" style="enable-background:new 0 0 152 49.6;" xml:space="preserve">
<style type="text/css">
	.st0{fill:#606060;}
</style>
<g>
	<g>
		<path class="st0" d="M46.3,16.1c-0.6-0.2-1.2-0.4-1.8-0.6c0.1-0.4,0.2-0.8,0.3-1.2c1.4-6.6,0.5-11.9-2.6-13.7
			C39.3-1,34.5,0.7,29.7,4.9c-0.5,0.4-0.9,0.8-1.4,1.3c-0.3-0.3-0.6-0.6-0.9-0.9c-5-4.5-10.1-6.4-13.1-4.6
			c-2.9,1.7-3.8,6.7-2.5,12.9c0.1,0.6,0.3,1.2,0.4,1.8c-0.7,0.2-1.4,0.4-2.1,0.6c-5.9,2.1-9.7,5.3-9.7,8.6c0,3.5,4,6.9,10.2,9
			c0.5,0.2,1,0.3,1.5,0.5c-0.2,0.7-0.3,1.3-0.4,2c-1.2,6.1-0.3,11,2.6,12.7c3,1.7,8,0,12.9-4.3c0.4-0.3,0.8-0.7,1.2-1.1
			c0.5,0.5,1,0.9,1.5,1.4c4.7,4.1,9.4,5.7,12.3,4c3-1.7,4-7,2.7-13.4c-0.1-0.5-0.2-1-0.3-1.5c0.4-0.1,0.7-0.2,1-0.3
			c6.4-2.1,10.6-5.5,10.6-9C56.2,21.4,52.3,18.2,46.3,16.1z M31.3,6.7c4.1-3.6,8-5,9.7-4c1.9,1.1,2.6,5.4,1.4,11.1
			c-0.1,0.4-0.2,0.7-0.2,1.1c-2.3-0.5-4.8-0.9-7.5-1.2c-1.5-2.2-3.1-4.2-4.7-5.9C30.4,7.4,30.9,7.1,31.3,6.7z M16.9,27.6
			c0.5,1,1,1.9,1.6,2.9c0.6,1,1.2,1.9,1.8,2.9c-1.8-0.2-3.6-0.5-5.1-0.8C15.6,31,16.2,29.3,16.9,27.6z M16.9,22
			c-0.7-1.6-1.3-3.3-1.8-4.8c1.6-0.4,3.3-0.6,5.1-0.9c-0.6,0.9-1.2,1.9-1.7,2.8C17.9,20.1,17.4,21.1,16.9,22z M18.1,24.8
			c0.7-1.5,1.5-3,2.4-4.5c0.9-1.5,1.8-2.9,2.7-4.3c1.7-0.1,3.4-0.2,5.1-0.2c1.7,0,3.4,0.1,5.1,0.2c0.9,1.4,1.8,2.8,2.7,4.3
			c0.9,1.5,1.7,3,2.4,4.5c-0.7,1.5-1.5,3-2.4,4.5c-0.9,1.5-1.8,3-2.7,4.3c-1.7,0.1-3.4,0.2-5.1,0.2c-1.7,0-3.4-0.1-5.1-0.2
			c-0.9-1.4-1.9-2.8-2.7-4.3C19.7,27.8,18.9,26.3,18.1,24.8z M38.2,30.5c0.6-1,1.1-2,1.6-3c0.7,1.7,1.4,3.3,1.9,4.9
			c-1.6,0.4-3.4,0.7-5.2,0.9C37,32.4,37.6,31.5,38.2,30.5z M39.8,22c-0.5-1-1-1.9-1.6-2.9c-0.6-1-1.1-1.9-1.7-2.8
			c1.8,0.2,3.5,0.5,5.1,0.9C41.1,18.8,40.5,20.4,39.8,22z M28.3,9.6c1.1,1.2,2.2,2.5,3.3,4c-1.1-0.1-2.2-0.1-3.3-0.1
			c-1.1,0-2.2,0-3.3,0.1C26.1,12.1,27.2,10.8,28.3,9.6z M15.5,2.8c1.9-1.1,6,0.5,10.3,4.3c0.3,0.2,0.6,0.5,0.8,0.8
			c-1.6,1.7-3.2,3.7-4.8,5.9c-2.6,0.2-5.1,0.6-7.4,1.2c-0.1-0.6-0.3-1.2-0.4-1.7C13,7.8,13.7,3.8,15.5,2.8z M12.8,32
			c-0.5-0.1-0.9-0.3-1.4-0.4c-2.7-0.9-5-2.1-6.5-3.5c-1.4-1.2-2.1-2.4-2.1-3.3c0-2,3-4.6,8.1-6.4c0.6-0.2,1.3-0.4,1.9-0.6
			c0.7,2.3,1.6,4.6,2.7,7C14.4,27.3,13.5,29.7,12.8,32z M25.7,42.8c-2.2,1.9-4.3,3.2-6.2,3.9c-1.7,0.6-3.1,0.6-3.9,0.1
			c-1.8-1-2.5-4.9-1.5-10.2c0.1-0.6,0.2-1.2,0.4-1.9c2.3,0.5,4.8,0.9,7.5,1.1c1.5,2.2,3.2,4.2,4.8,5.9C26.4,42.2,26,42.5,25.7,42.8z
			 M28.4,40.1c-1.1-1.2-2.3-2.6-3.4-4c1.1,0,2.2,0.1,3.3,0.1c1.1,0,2.3,0,3.4-0.1C30.6,37.6,29.5,38.9,28.4,40.1z M42.9,43.5
			c-0.3,1.8-1,3-1.8,3.5c-1.8,1-5.5-0.3-9.6-3.8c-0.5-0.4-0.9-0.8-1.4-1.3c1.6-1.7,3.1-3.7,4.7-5.9c2.7-0.2,5.2-0.6,7.6-1.2
			c0.1,0.5,0.2,0.9,0.3,1.4C43.2,38.9,43.2,41.5,42.9,43.5z M44.9,31.6c-0.3,0.1-0.6,0.2-0.9,0.3c-0.7-2.2-1.7-4.6-2.8-7.1
			c1.1-2.4,2-4.7,2.7-7c0.6,0.2,1.1,0.3,1.7,0.5c5.2,1.8,8.3,4.4,8.3,6.4C53.8,26.9,50.4,29.7,44.9,31.6z"/>
		<circle class="st0" cx="28.3" cy="24.8" r="5"/>
	</g>
	<g>
		<path class="st0" d="M86,33.5l-5.6-8.8h-4.4v8.8h-2.8V11.3h8.9c4.1,0,6.9,2.6,6.9,6.7c0,4-2.7,6.2-5.7,6.4l6,9H86z M86.1,18
			c0-2.5-1.8-4.2-4.4-4.2h-5.8v8.5h5.8C84.4,22.3,86.1,20.5,86.1,18z"/>
		<path class="st0" d="M91.3,25.5c0-4.7,3.3-8.4,7.9-8.4c4.9,0,7.7,3.8,7.7,8.6v0.6H94c0.2,3,2.3,5.5,5.8,5.5c1.8,0,3.7-0.7,5-2
			l1.2,1.6c-1.6,1.6-3.8,2.5-6.4,2.5C94.8,33.9,91.3,30.5,91.3,25.5z M99.2,19.1c-3.4,0-5.1,2.9-5.3,5.3h10.5
			C104.5,22.1,102.9,19.1,99.2,19.1z"/>
		<path class="st0" d="M121,33.5v-1.8c-1.3,1.5-3.2,2.2-5.3,2.2c-2.7,0-5.6-1.8-5.6-5.3c0-3.6,2.9-5.3,5.6-5.3c2.2,0,4,0.7,5.3,2.2
			v-2.9c0-2.2-1.7-3.4-4.1-3.4c-1.9,0-3.5,0.7-4.9,2.2l-1.2-1.7c1.7-1.8,3.8-2.7,6.4-2.7c3.4,0,6.2,1.5,6.2,5.4v11H121z M121,30.1
			v-3c-1-1.3-2.7-2-4.4-2c-2.3,0-4,1.5-4,3.5c0,2,1.6,3.5,4,3.5C118.3,32.1,120,31.4,121,30.1z"/>
		<path class="st0" d="M127.5,25.5c0-4.8,3.2-8.4,8-8.4c2.9,0,4.7,1.2,5.9,2.8l-1.7,1.5c-1.1-1.5-2.4-2.1-4.1-2.1
			c-3.4,0-5.5,2.6-5.5,6.2c0,3.6,2.1,6.2,5.5,6.2c1.7,0,3-0.7,4.1-2.1l1.7,1.5c-1.2,1.6-3,2.8-5.9,2.8
			C130.8,33.9,127.5,30.3,127.5,25.5z"/>
		<path class="st0" d="M145.4,30.2V19.7h-2.7v-2.2h2.7v-4.4h2.5v4.4h3.3v2.2h-3.3v10c0,1.2,0.5,2.1,1.6,2.1c0.7,0,1.4-0.3,1.7-0.7
			l0.7,1.9c-0.6,0.6-1.5,1-3,1C146.6,33.9,145.4,32.5,145.4,30.2z"/>
	</g>
</g>
</svg>
