<?xml version="1.0" encoding="utf-8"?>
<!-- Generator: Adobe Illustrator 19.2.0, SVG Export Plug-In . SVG Version: 6.00 Build 0)  -->
<svg version="1.1" id="Warstwa_1" xmlns="http://www.w3.org/2000/svg" xmlns:xlink="http://www.w3.org/1999/xlink" x="0px" y="0px"
	 viewBox="0 0 114.2 28.4" style="enable-background:new 0 0 114.2 28.4;" xml:space="preserve">
<style type="text/css">
	.st0{fill:#606060;}
</style>
<path class="st0" d="M14.1,3.4H8.2v18.2H5.9V3.4H0V1.2h14.1V3.4z M23.4,7l-6.7,16.8c-1.2,3-2.9,4.5-5,4.5c-0.6,0-1.1-0.1-1.5-0.2
	v-2.1c0.5,0.2,1,0.3,1.4,0.3c1.2,0,2.1-0.7,2.6-2.1l1.2-2.8L9.7,7h2.6l3.9,11.2c0,0.1,0.1,0.5,0.3,1.1h0.1c0-0.2,0.1-0.6,0.3-1.1
	L21,7C21,7,23.4,7,23.4,7z M27.2,19.5L27.2,19.5l-0.1,8.8h-2.3V7h2.3v2.6h0.1c1.1-1.9,2.8-2.9,5-2.9c1.9,0,3.3,0.6,4.4,1.9
	s1.6,3,1.6,5.2c0,2.4-0.6,4.4-1.8,5.8s-2.8,2.2-4.8,2.2C29.7,21.9,28.2,21.1,27.2,19.5z M27.1,13.6v2c0,1.2,0.4,2.2,1.2,3.1
	c0.8,0.8,1.8,1.3,3,1.3c1.4,0,2.5-0.5,3.3-1.6c0.8-1.1,1.2-2.6,1.2-4.5c0-1.6-0.4-2.9-1.1-3.8c-0.7-0.9-1.8-1.4-3-1.4
	c-1.4,0-2.4,0.5-3.3,1.4C27.5,11,27.1,12.2,27.1,13.6z M52.3,14.9H42c0,1.6,0.5,2.9,1.3,3.7c0.8,0.9,2,1.3,3.4,1.3
	c1.6,0,3.1-0.5,4.5-1.6v2.2c-1.3,0.9-3,1.4-5.1,1.4c-2.1,0-3.7-0.7-4.8-2c-1.2-1.3-1.8-3.2-1.8-5.6c0-2.3,0.6-4.1,1.9-5.5
	c1.3-1.4,2.9-2.1,4.8-2.1c1.9,0,3.4,0.6,4.4,1.8s1.6,2.9,1.6,5.1L52.3,14.9L52.3,14.9z M49.9,12.9c0-1.3-0.3-2.4-1-3.1
	c-0.6-0.7-1.5-1.1-2.7-1.1c-1.1,0-2,0.4-2.8,1.2s-1.2,1.8-1.4,3.1H49.9z M54.3,20.7v-2.8c0.3,0.3,0.6,0.5,1.1,0.8
	c0.4,0.2,0.8,0.4,1.3,0.6c0.5,0.2,0.9,0.3,1.4,0.4c0.5,0.1,0.9,0.1,1.3,0.1c1.3,0,2.3-0.3,3-0.8c0.7-0.5,1-1.3,1-2.3
	c0-0.5-0.1-1-0.3-1.4c-0.2-0.4-0.5-0.8-0.9-1.1c-0.4-0.3-0.9-0.7-1.4-1c-0.5-0.3-1.1-0.6-1.7-1c-0.6-0.4-1.3-0.7-1.8-1.1
	c-0.6-0.4-1.1-0.8-1.5-1.2c-0.4-0.4-0.7-0.9-1-1.5s-0.4-1.2-0.4-2c0-0.9,0.2-1.7,0.6-2.4s0.9-1.3,1.5-1.7c0.6-0.4,1.3-0.8,2.1-1
	C59.2,1,60,0.9,60.8,0.9c1.8,0,3.2,0.2,4,0.7v2.7C63.7,3.5,62.3,3,60.6,3c-0.5,0-1,0.1-1.4,0.2c-0.5,0.1-0.9,0.3-1.3,0.5
	s-0.7,0.6-0.9,1c-0.2,0.4-0.4,0.9-0.4,1.4c0,0.5,0.1,1,0.3,1.3c0.2,0.4,0.4,0.7,0.8,1c0.3,0.3,0.8,0.6,1.3,0.9
	c0.5,0.3,1.1,0.6,1.7,1c0.7,0.4,1.3,0.7,1.9,1.1c0.6,0.4,1.1,0.8,1.6,1.3c0.4,0.5,0.8,1,1.1,1.6c0.3,0.6,0.4,1.3,0.4,2
	c0,1-0.2,1.9-0.5,2.5c-0.4,0.7-0.8,1.3-1.5,1.7c-0.6,0.4-1.3,0.8-2.1,0.9c-0.8,0.2-1.6,0.3-2.5,0.3c-0.3,0-0.7,0-1.1-0.1
	c-0.4-0.1-0.9-0.1-1.3-0.2c-0.5-0.1-0.9-0.2-1.3-0.4C54.9,21.1,54.6,20.9,54.3,20.7z M78,20.9c-1.1,0.7-2.4,1-4,1
	c-2.1,0-3.7-0.7-5-2s-1.9-3.1-1.9-5.2c0-2.4,0.7-4.3,2.1-5.8c1.4-1.5,3.2-2.2,5.5-2.2c1.3,0,2.4,0.2,3.4,0.7v2.4
	c-1.1-0.8-2.2-1.1-3.5-1.1c-1.5,0-2.7,0.5-3.7,1.6c-0.9,1.1-1.4,2.5-1.4,4.2c0,1.7,0.4,3,1.3,4c0.9,1,2.1,1.5,3.6,1.5
	c1.3,0,2.5-0.4,3.6-1.3L78,20.9L78,20.9z M87,9.4c-0.4-0.3-1-0.5-1.8-0.5c-1,0-1.8,0.5-2.5,1.4c-0.7,0.9-1,2.2-1,3.8v7.4h-2.3V7h2.3
	v3h0.1c0.3-1,0.8-1.8,1.5-2.4c0.7-0.6,1.4-0.9,2.3-0.9c0.6,0,1.1,0.1,1.4,0.2V9.4z M89.6,3.4c-0.4,0-0.8-0.1-1.1-0.4
	s-0.4-0.6-0.4-1.1s0.1-0.8,0.4-1.1c0.3-0.3,0.6-0.4,1.1-0.4c0.4,0,0.8,0.1,1.1,0.4c0.3,0.3,0.4,0.6,0.4,1.1c0,0.4-0.1,0.8-0.4,1.1
	C90.4,3.2,90.1,3.4,89.6,3.4z M90.8,21.6h-2.3V7h2.3V21.6z M94.5,19.5L94.5,19.5l-0.1,8.8h-2.3V7h2.3v2.6h0.1c1.1-1.9,2.8-2.9,5-2.9
	c1.9,0,3.3,0.6,4.4,1.9s1.6,3,1.6,5.2c0,2.4-0.6,4.4-1.8,5.8c-1.2,1.5-2.8,2.2-4.8,2.2C97,21.9,95.6,21.1,94.5,19.5z M94.5,13.6v2
	c0,1.2,0.4,2.2,1.2,3.1c0.8,0.8,1.8,1.3,3,1.3c1.4,0,2.5-0.5,3.3-1.6c0.8-1.1,1.2-2.6,1.2-4.5c0-1.6-0.4-2.9-1.1-3.8
	c-0.7-0.9-1.8-1.4-3-1.4c-1.4,0-2.4,0.5-3.3,1.4C94.9,11,94.5,12.2,94.5,13.6z M114.2,21.4c-0.5,0.3-1.3,0.5-2.2,0.5
	c-2.5,0-3.8-1.4-3.8-4.3V9h-2.5V7h2.5V3.5l2.3-0.8V7h3.7v2h-3.7v8.2c0,1,0.2,1.7,0.5,2.1c0.3,0.4,0.9,0.6,1.6,0.6
	c0.6,0,1.1-0.2,1.5-0.5V21.4z"/>
</svg>
